<svg xmlns="http://www.w3.org/2000/svg" fill="none" viewBox="0 0 44 44"><path fill="#000" fill-rule="evenodd" d="M27.942 13.3c1.261 0 2.433.231 3.552.676a9.5 9.5 0 0 1 2.878 1.884 8.8 8.8 0 0 1 1.936 2.809c.48 1.066.692 2.24.692 3.466q0 1.84-.692 3.466a9.1 9.1 0 0 1-1.936 2.81 8.6 8.6 0 0 1-2.878 1.866c-1.119.48-2.29.693-3.552.693h-6.767V13.3zm2.238 13.902a4.9 4.9 0 0 0 1.722-1.173c.48-.498.817-1.102 1.102-1.76a5.7 5.7 0 0 0 .39-2.133c0-.764-.124-1.493-.39-2.169a5.2 5.2 0 0 0-1.102-1.742 5.4 5.4 0 0 0-1.723-1.19 6 6 0 0 0-2.237-.428H24.78v11.04h3.162c.817 0 1.563-.143 2.238-.445M12.4 13A5.4 5.4 0 0 0 7 18.404a5.4 5.4 0 1 0 10.8 0C17.78 15.418 15.365 13 12.4 13m0 7.608a2.222 2.222 0 0 1 0-4.444c1.226 0 2.22.995 2.22 2.222-.018 1.226-1.012 2.222-2.22 2.222" clip-rule="evenodd"/></svg>